<svg width="538" height="167" viewBox="0 0 538 167" fill="none" xmlns="http://www.w3.org/2000/svg">
<path d="M132.488 118.403H0L66.0234 0L132.488 118.403ZM18.6328 100.356L12.7646 110.92L120.163 111.36L113.875 100.356H18.6328ZM28.415 82.75L23.0352 92.4336H109.348L103.814 82.75H28.415ZM38.1963 65.1436L32.8164 74.8271H99.2871L93.7539 65.1436H38.1963ZM47.9775 47.5371L42.5977 57.2207H89.2266L83.6934 47.5371H47.9775ZM57.7588 29.9307L52.3789 39.6143H79.166L73.6328 29.9307H57.7588ZM62.1602 22.0078H69.1055L65.584 15.8457L62.1602 22.0078Z" fill="white"/>
<path d="M268.497 44.8965H156.697V56.3408H225.362V63.3828H156.697V74.8271H268.497V118.843H149.654V0H268.497V44.8965ZM156.697 100.356V111.801H261.455V100.356H156.697ZM156.697 81.8691V93.3135H261.455V81.8691H156.697ZM156.697 26.4092V37.8535H261.455V26.4092H156.697ZM156.697 7.92285V19.3672H261.455V7.92285H156.697Z" fill="white"/>
<path d="M348.607 0.129883C379.577 2.16863 404.067 27.9356 404.067 59.4219C404.066 90.9079 379.577 116.673 348.607 118.712V118.843H284.343V0H348.607V0.129883ZM297.108 7.92285L348.606 59.8613L296.227 111.801H312.953L364.452 59.8613L312.513 7.92285H297.108ZM323.957 7.92285L375.456 59.8613L323.077 111.801H339.803L391.302 59.8613L339.363 7.92285H323.957ZM348.67 110.972C355.437 110.239 364.551 109.559 379.811 96.2451C389.799 87.5311 393.982 72.3407 394.997 66.1992L348.67 110.972ZM292.266 29.0508L322.197 59.4219L292.266 90.2324V105.198L338.042 59.4219L292.266 13.6445V29.0508ZM292.266 55.0195L296.667 59.4219L292.266 63.8232V79.2285L312.513 59.4219L292.266 39.6143V55.0195ZM395.263 53.2588C394.383 46.5098 393.502 37.4132 379.858 22.4482C370.927 12.6534 355.649 8.80321 349.487 7.92285L395.263 53.2588Z" fill="white"/>
<path d="M478.893 0C507.102 0 530.754 19.5123 537.088 45.7764H529.004C523.36 25.1833 505.252 9.74581 483.295 8.0752V110.767C505.252 109.096 523.36 93.6596 529.004 73.0664H537.292C531.279 99.7736 507.416 119.724 478.893 119.724C445.833 119.723 419.032 92.9219 419.032 59.8613C419.032 26.8009 445.833 0.000183507 478.893 0ZM475.372 8.07324C471.732 8.35018 468.197 9.00548 464.808 10V108.842C468.197 109.836 471.731 110.493 475.372 110.77V8.07324ZM456.885 13.0596C453.078 14.9063 449.535 17.2102 446.322 19.8965V98.9453C449.535 101.632 453.078 103.935 456.885 105.782V13.0596ZM438.399 28.1748C431.773 36.8411 427.834 47.6707 427.834 59.4219C427.835 71.1728 431.774 82.0019 438.399 90.668V28.1748Z" fill="white"/>
<path d="M132.488 118.403H0L66.0234 0L132.488 118.403ZM18.6328 100.356L12.7646 110.92L120.163 111.36L113.875 100.356H18.6328ZM28.415 82.75L23.0352 92.4336H109.348L103.814 82.75H28.415ZM38.1963 65.1436L32.8164 74.8271H99.2871L93.7539 65.1436H38.1963ZM47.9775 47.5371L42.5977 57.2207H89.2266L83.6934 47.5371H47.9775ZM57.7588 29.9307L52.3789 39.6143H79.166L73.6328 29.9307H57.7588ZM62.1602 22.0078H69.1055L65.584 15.8457L62.1602 22.0078Z" fill="white"/>
<path d="M268.497 44.8965H156.697V56.3408H225.362V63.3828H156.697V74.8271H268.497V118.843H149.654V0H268.497V44.8965ZM156.697 100.356V111.801H261.455V100.356H156.697ZM156.697 81.8691V93.3135H261.455V81.8691H156.697ZM156.697 26.4092V37.8535H261.455V26.4092H156.697ZM156.697 7.92285V19.3672H261.455V7.92285H156.697Z" fill="white"/>
<path d="M348.607 0.129883C379.577 2.16863 404.067 27.9356 404.067 59.4219C404.066 90.9079 379.577 116.673 348.607 118.712V118.843H284.343V0H348.607V0.129883ZM297.108 7.92285L348.606 59.8613L296.227 111.801H312.953L364.452 59.8613L312.513 7.92285H297.108ZM323.957 7.92285L375.456 59.8613L323.077 111.801H339.803L391.302 59.8613L339.363 7.92285H323.957ZM348.67 110.972C355.437 110.239 364.551 109.559 379.811 96.2451C389.799 87.5311 393.982 72.3407 394.997 66.1992L348.67 110.972ZM292.266 29.0508L322.197 59.4219L292.266 90.2324V105.198L338.042 59.4219L292.266 13.6445V29.0508ZM292.266 55.0195L296.667 59.4219L292.266 63.8232V79.2285L312.513 59.4219L292.266 39.6143V55.0195ZM395.263 53.2588C394.383 46.5098 393.502 37.4132 379.858 22.4482C370.927 12.6534 355.649 8.80321 349.487 7.92285L395.263 53.2588Z" fill="white"/>
<path d="M478.893 0C507.102 0 530.754 19.5123 537.088 45.7764H529.004C523.36 25.1833 505.252 9.74581 483.295 8.0752V110.767C505.252 109.096 523.36 93.6596 529.004 73.0664H537.292C531.279 99.7736 507.416 119.724 478.893 119.724C445.833 119.723 419.032 92.9219 419.032 59.8613C419.032 26.8009 445.833 0.000183507 478.893 0ZM475.372 8.07324C471.732 8.35018 468.197 9.00548 464.808 10V108.842C468.197 109.836 471.731 110.493 475.372 110.77V8.07324ZM456.885 13.0596C453.078 14.9063 449.535 17.2102 446.322 19.8965V98.9453C449.535 101.632 453.078 103.935 456.885 105.782V13.0596ZM438.399 28.1748C431.773 36.8411 427.834 47.6707 427.834 59.4219C427.835 71.1728 431.774 82.0019 438.399 90.668V28.1748Z" fill="white"/>
<path d="M137.565 159.13C137.095 159.13 136.665 159.015 136.277 158.786C135.888 158.553 135.577 158.242 135.344 157.853C135.115 157.465 135 157.035 135 156.565C135 156.091 135.115 155.661 135.344 155.277C135.577 154.888 135.888 154.579 136.277 154.35C136.665 154.117 137.095 154 137.565 154C138.039 154 138.469 154.117 138.853 154.35C139.242 154.579 139.551 154.888 139.78 155.277C140.013 155.661 140.13 156.091 140.13 156.565C140.13 157.035 140.013 157.465 139.78 157.853C139.551 158.242 139.242 158.553 138.853 158.786C138.469 159.015 138.039 159.13 137.565 159.13Z" fill="white"/>
<path d="M286.565 159.13C286.095 159.13 285.665 159.015 285.277 158.786C284.888 158.553 284.577 158.242 284.344 157.853C284.115 157.465 284 157.035 284 156.565C284 156.091 284.115 155.661 284.344 155.277C284.577 154.888 284.888 154.579 285.277 154.35C285.665 154.117 286.095 154 286.565 154C287.039 154 287.469 154.117 287.853 154.35C288.242 154.579 288.551 154.888 288.78 155.277C289.013 155.661 289.13 156.091 289.13 156.565C289.13 157.035 289.013 157.465 288.78 157.853C288.551 158.242 288.242 158.553 287.853 158.786C287.469 159.015 287.039 159.13 286.565 159.13Z" fill="white"/>
<path d="M415.565 159.13C415.095 159.13 414.665 159.015 414.277 158.786C413.888 158.553 413.577 158.242 413.344 157.853C413.115 157.465 413 157.035 413 156.565C413 156.091 413.115 155.661 413.344 155.277C413.577 154.888 413.888 154.579 414.277 154.35C414.665 154.117 415.095 154 415.565 154C416.039 154 416.469 154.117 416.853 154.35C417.242 154.579 417.551 154.888 417.78 155.277C418.013 155.661 418.13 156.091 418.13 156.565C418.13 157.035 418.013 157.465 417.78 157.853C417.551 158.242 417.242 158.553 416.853 158.786C416.469 159.015 416.039 159.13 415.565 159.13Z" fill="white"/>
<path d="M115.41 153.534L113.904 153.96C113.809 153.709 113.67 153.465 113.485 153.229C113.305 152.987 113.059 152.788 112.746 152.632C112.434 152.476 112.034 152.398 111.546 152.398C110.878 152.398 110.322 152.552 109.877 152.859C109.437 153.162 109.217 153.548 109.217 154.017C109.217 154.434 109.368 154.763 109.671 155.004C109.974 155.246 110.448 155.447 111.092 155.608L112.711 156.006C113.686 156.242 114.413 156.605 114.891 157.092C115.369 157.575 115.609 158.198 115.609 158.96C115.609 159.585 115.429 160.144 115.069 160.636C114.714 161.129 114.217 161.517 113.577 161.801C112.938 162.085 112.195 162.227 111.347 162.227C110.234 162.227 109.314 161.986 108.584 161.503C107.855 161.02 107.394 160.314 107.199 159.386L108.79 158.989C108.942 159.576 109.228 160.016 109.65 160.31C110.076 160.603 110.632 160.75 111.319 160.75C112.1 160.75 112.72 160.584 113.18 160.253C113.644 159.917 113.876 159.514 113.876 159.045C113.876 158.667 113.743 158.349 113.478 158.094C113.213 157.833 112.806 157.639 112.256 157.511L110.438 157.085C109.439 156.848 108.705 156.482 108.236 155.984C107.772 155.482 107.54 154.855 107.54 154.102C107.54 153.487 107.713 152.942 108.059 152.469C108.409 151.995 108.885 151.624 109.486 151.354C110.092 151.084 110.779 150.949 111.546 150.949C112.626 150.949 113.473 151.186 114.089 151.659C114.709 152.133 115.149 152.758 115.41 153.534Z" fill="white"/>
<path d="M100.942 162.227C99.9197 162.227 99.039 161.986 98.3004 161.503C97.5618 161.02 96.9936 160.355 96.5959 159.507C96.1981 158.66 95.9993 157.691 95.9993 156.602C95.9993 155.494 96.2029 154.517 96.6101 153.669C97.022 152.817 97.5949 152.152 98.3288 151.673C99.0674 151.19 99.9292 150.949 100.914 150.949C101.681 150.949 102.372 151.091 102.988 151.375C103.603 151.659 104.108 152.057 104.501 152.568C104.894 153.08 105.138 153.676 105.232 154.358H103.556C103.428 153.861 103.144 153.42 102.704 153.037C102.268 152.649 101.681 152.455 100.942 152.455C100.289 152.455 99.7161 152.625 99.2237 152.966C98.736 153.302 98.3549 153.778 98.0802 154.393C97.8103 155.004 97.6754 155.722 97.6754 156.545C97.6754 157.388 97.808 158.122 98.0731 158.747C98.343 159.372 98.7218 159.857 99.2095 160.203C99.7019 160.549 100.28 160.722 100.942 160.722C101.378 160.722 101.773 160.646 102.129 160.494C102.484 160.343 102.784 160.125 103.031 159.841C103.277 159.557 103.452 159.216 103.556 158.818H105.232C105.138 159.462 104.903 160.042 104.529 160.558C104.16 161.07 103.67 161.477 103.059 161.78C102.453 162.078 101.747 162.227 100.942 162.227Z" fill="white"/>
<path d="M91.7645 162V151.091H93.4406V162H91.7645ZM92.6168 149.273C92.2901 149.273 92.0083 149.161 91.7716 148.939C91.5396 148.716 91.4236 148.449 91.4236 148.136C91.4236 147.824 91.5396 147.556 91.7716 147.334C92.0083 147.111 92.2901 147 92.6168 147C92.9435 147 93.2228 147.111 93.4548 147.334C93.6916 147.556 93.8099 147.824 93.8099 148.136C93.8099 148.449 93.6916 148.716 93.4548 148.939C93.2228 149.161 92.9435 149.273 92.6168 149.273Z" fill="white"/>
<path d="M89.2433 151.091V152.511H83.5898V151.091H89.2433ZM85.2376 148.477H86.9137V158.875C86.9137 159.349 86.9824 159.704 87.1197 159.94C87.2617 160.172 87.4416 160.329 87.6594 160.409C87.882 160.485 88.1164 160.523 88.3626 160.523C88.5472 160.523 88.6987 160.513 88.8171 160.494C88.9355 160.471 89.0302 160.452 89.1012 160.438L89.4421 161.943C89.3285 161.986 89.1699 162.028 88.9663 162.071C88.7627 162.118 88.5046 162.142 88.1921 162.142C87.7186 162.142 87.2546 162.04 86.8001 161.837C86.3503 161.633 85.9762 161.323 85.6779 160.906C85.3843 160.49 85.2376 159.964 85.2376 159.33V148.477Z" fill="white"/>
<path d="M77.4322 162.227C76.381 162.227 75.4743 161.995 74.712 161.531C73.9544 161.062 73.3696 160.409 72.9577 159.571C72.5505 158.728 72.3469 157.748 72.3469 156.631C72.3469 155.513 72.5505 154.528 72.9577 153.676C73.3696 152.819 73.9426 152.152 74.6765 151.673C75.4151 151.19 76.2768 150.949 77.2617 150.949C77.8299 150.949 78.391 151.044 78.9449 151.233C79.4989 151.422 80.0032 151.73 80.4577 152.156C80.9123 152.578 81.2745 153.136 81.5444 153.832C81.8143 154.528 81.9492 155.385 81.9492 156.403V157.114H73.5401V155.665H80.2447C80.2447 155.049 80.1215 154.5 79.8753 154.017C79.6339 153.534 79.2882 153.153 78.8384 152.874C78.3933 152.594 77.8678 152.455 77.2617 152.455C76.5941 152.455 76.0164 152.62 75.5287 152.952C75.0458 153.278 74.6741 153.705 74.4137 154.23C74.1533 154.756 74.0231 155.319 74.0231 155.92V156.886C74.0231 157.71 74.1651 158.409 74.4492 158.982C74.738 159.55 75.1381 159.983 75.6495 160.281C76.1608 160.575 76.7551 160.722 77.4322 160.722C77.8725 160.722 78.2702 160.66 78.6253 160.537C78.9852 160.409 79.2953 160.22 79.5557 159.969C79.8161 159.713 80.0174 159.396 80.1594 159.017L81.7787 159.472C81.6083 160.021 81.3218 160.504 80.9194 160.92C80.5169 161.332 80.0197 161.654 79.4279 161.886C78.836 162.114 78.1708 162.227 77.4322 162.227Z" fill="white"/>
<path d="M62.7181 155.438V162H61.042V147.455H62.7181V152.795H62.8602C63.1159 152.232 63.4994 151.785 64.0107 151.453C64.5268 151.117 65.2134 150.949 66.0704 150.949C66.8138 150.949 67.4648 151.098 68.0235 151.396C68.5822 151.69 69.0155 152.142 69.3232 152.753C69.6357 153.359 69.792 154.131 69.792 155.068V162H68.1159V155.182C68.1159 154.315 67.891 153.645 67.4411 153.172C66.9961 152.694 66.3782 152.455 65.5874 152.455C65.0382 152.455 64.5458 152.571 64.1102 152.803C63.6793 153.035 63.3384 153.373 63.0874 153.818C62.8412 154.263 62.7181 154.803 62.7181 155.438Z" fill="white"/>
<path d="M58.2862 151.091V152.511H52.6328V151.091H58.2862ZM54.2805 148.477H55.9567V158.875C55.9567 159.349 56.0253 159.704 56.1626 159.94C56.3047 160.172 56.4846 160.329 56.7024 160.409C56.925 160.485 57.1593 160.523 57.4055 160.523C57.5902 160.523 57.7417 160.513 57.8601 160.494C57.9785 160.471 58.0732 160.452 58.1442 160.438L58.4851 161.943C58.3714 161.986 58.2128 162.028 58.0092 162.071C57.8056 162.118 57.5476 162.142 57.2351 162.142C56.7616 162.142 56.2976 162.04 55.843 161.837C55.3932 161.633 55.0192 161.323 54.7209 160.906C54.4273 160.49 54.2805 159.964 54.2805 159.33V148.477Z" fill="white"/>
<path d="M50.8198 153.534L49.3142 153.96C49.2195 153.709 49.0798 153.465 48.8951 153.229C48.7152 152.987 48.469 152.788 48.1565 152.632C47.844 152.476 47.4439 152.398 46.9562 152.398C46.2886 152.398 45.7323 152.552 45.2872 152.859C44.8468 153.162 44.6267 153.548 44.6267 154.017C44.6267 154.434 44.7782 154.763 45.0812 155.004C45.3842 155.246 45.8577 155.447 46.5017 155.608L48.121 156.006C49.0964 156.242 49.8232 156.605 50.3014 157.092C50.7796 157.575 51.0187 158.198 51.0187 158.96C51.0187 159.585 50.8388 160.144 50.4789 160.636C50.1238 161.129 49.6267 161.517 48.9875 161.801C48.3483 162.085 47.6049 162.227 46.7573 162.227C45.6447 162.227 44.7237 161.986 43.9946 161.503C43.2654 161.02 42.8037 160.314 42.6096 159.386L44.2005 158.989C44.352 159.576 44.6385 160.016 45.0599 160.31C45.486 160.603 46.0424 160.75 46.7289 160.75C47.5102 160.75 48.1305 160.584 48.5897 160.253C49.0537 159.917 49.2858 159.514 49.2858 159.045C49.2858 158.667 49.1532 158.349 48.888 158.094C48.6229 157.833 48.2157 157.639 47.6664 157.511L45.8483 157.085C44.8492 156.848 44.1153 156.482 43.6466 155.984C43.1825 155.482 42.9505 154.855 42.9505 154.102C42.9505 153.487 43.1234 152.942 43.469 152.469C43.8194 151.995 44.2952 151.624 44.8966 151.354C45.5026 151.084 46.1892 150.949 46.9562 150.949C48.0358 150.949 48.8833 151.186 49.4988 151.659C50.1191 152.133 50.5594 152.758 50.8198 153.534Z" fill="white"/>
<path d="M36.0259 162.227C34.9748 162.227 34.068 161.995 33.3057 161.531C32.5482 161.062 31.9634 160.409 31.5515 159.571C31.1443 158.728 30.9407 157.748 30.9407 156.631C30.9407 155.513 31.1443 154.528 31.5515 153.676C31.9634 152.819 32.5363 152.152 33.2702 151.673C34.0089 151.19 34.8706 150.949 35.8554 150.949C36.4236 150.949 36.9847 151.044 37.5387 151.233C38.0927 151.422 38.5969 151.73 39.0515 152.156C39.506 152.578 39.8682 153.136 40.1381 153.832C40.408 154.528 40.5429 155.385 40.5429 156.403V157.114H32.1339V155.665H38.8384C38.8384 155.049 38.7153 154.5 38.4691 154.017C38.2276 153.534 37.882 153.153 37.4322 152.874C36.9871 152.594 36.4615 152.455 35.8554 152.455C35.1878 152.455 34.6102 152.62 34.1225 152.952C33.6395 153.278 33.2679 153.705 33.0074 154.23C32.747 154.756 32.6168 155.319 32.6168 155.92V156.886C32.6168 157.71 32.7589 158.409 33.0429 158.982C33.3318 159.55 33.7319 159.983 34.2432 160.281C34.7546 160.575 35.3488 160.722 36.0259 160.722C36.4662 160.722 36.864 160.66 37.2191 160.537C37.5789 160.409 37.8891 160.22 38.1495 159.969C38.4099 159.713 38.6111 159.396 38.7532 159.017L40.3725 159.472C40.202 160.021 39.9156 160.504 39.5131 160.92C39.1107 161.332 38.6135 161.654 38.0216 161.886C37.4298 162.114 36.7645 162.227 36.0259 162.227Z" fill="white"/>
<path d="M18.7604 162H16.9138L22.2547 147.455H24.0729L29.4138 162H27.5672L23.2206 149.756H23.107L18.7604 162ZM19.4422 156.318H26.8854V157.881H19.4422V156.318Z" fill="white"/>
<path d="M368.06 155.437V162H366.384V151.091H368.003V152.795H368.145C368.401 152.241 368.789 151.796 369.31 151.46C369.831 151.119 370.503 150.949 371.327 150.949C372.066 150.949 372.712 151.1 373.266 151.403C373.82 151.702 374.251 152.156 374.559 152.767C374.866 153.373 375.02 154.14 375.02 155.068V162H373.344V155.182C373.344 154.325 373.121 153.657 372.676 153.179C372.231 152.696 371.621 152.455 370.844 152.455C370.309 152.455 369.831 152.571 369.409 152.803C368.993 153.035 368.664 153.373 368.422 153.818C368.181 154.263 368.06 154.803 368.06 155.437Z" fill="white"/>
<path d="M358.6 166.318C357.79 166.318 357.094 166.214 356.512 166.006C355.929 165.802 355.444 165.532 355.056 165.196C354.672 164.865 354.367 164.509 354.139 164.131L355.475 163.193C355.626 163.392 355.818 163.619 356.05 163.875C356.282 164.135 356.599 164.36 357.002 164.55C357.409 164.744 357.941 164.841 358.6 164.841C359.48 164.841 360.207 164.628 360.78 164.202C361.353 163.776 361.639 163.108 361.639 162.199V159.983H361.497C361.374 160.182 361.199 160.428 360.972 160.722C360.749 161.01 360.427 161.268 360.006 161.496C359.589 161.718 359.026 161.83 358.315 161.83C357.435 161.83 356.644 161.621 355.943 161.205C355.247 160.788 354.696 160.182 354.289 159.386C353.886 158.591 353.685 157.625 353.685 156.489C353.685 155.371 353.881 154.398 354.274 153.57C354.667 152.736 355.214 152.092 355.915 151.638C356.616 151.178 357.425 150.949 358.344 150.949C359.054 150.949 359.618 151.067 360.034 151.304C360.456 151.536 360.778 151.801 361 152.099C361.227 152.393 361.403 152.634 361.526 152.824H361.696V151.091H363.315V162.312C363.315 163.25 363.102 164.012 362.676 164.599C362.255 165.191 361.687 165.625 360.972 165.899C360.262 166.178 359.471 166.318 358.6 166.318ZM358.543 160.324C359.215 160.324 359.783 160.17 360.247 159.862C360.711 159.554 361.064 159.112 361.306 158.534C361.547 157.956 361.668 157.265 361.668 156.46C361.668 155.674 361.549 154.981 361.313 154.379C361.076 153.778 360.726 153.307 360.262 152.966C359.798 152.625 359.225 152.455 358.543 152.455C357.833 152.455 357.241 152.634 356.767 152.994C356.298 153.354 355.946 153.837 355.709 154.443C355.477 155.049 355.361 155.722 355.361 156.46C355.361 157.218 355.479 157.888 355.716 158.47C355.958 159.048 356.313 159.502 356.781 159.834C357.255 160.161 357.842 160.324 358.543 160.324Z" fill="white"/>
<path d="M349.45 162V151.091H351.126V162H349.45ZM350.302 149.273C349.976 149.273 349.694 149.161 349.457 148.939C349.225 148.716 349.109 148.449 349.109 148.136C349.109 147.824 349.225 147.556 349.457 147.334C349.694 147.111 349.976 147 350.302 147C350.629 147 350.908 147.111 351.14 147.334C351.377 147.556 351.495 147.824 351.495 148.136C351.495 148.449 351.377 148.716 351.14 148.939C350.908 149.161 350.629 149.273 350.302 149.273Z" fill="white"/>
<path d="M346.728 153.534L345.223 153.96C345.128 153.709 344.988 153.465 344.804 153.229C344.624 152.987 344.377 152.788 344.065 152.632C343.752 152.476 343.352 152.398 342.865 152.398C342.197 152.398 341.641 152.552 341.196 152.859C340.755 153.162 340.535 153.548 340.535 154.017C340.535 154.434 340.687 154.763 340.99 155.004C341.293 155.246 341.766 155.447 342.41 155.608L344.029 156.006C345.005 156.242 345.732 156.605 346.21 157.092C346.688 157.575 346.927 158.198 346.927 158.96C346.927 159.585 346.747 160.144 346.387 160.636C346.032 161.129 345.535 161.517 344.896 161.801C344.257 162.085 343.513 162.227 342.666 162.227C341.553 162.227 340.632 161.986 339.903 161.503C339.174 161.02 338.712 160.314 338.518 159.386L340.109 158.989C340.26 159.576 340.547 160.016 340.968 160.31C341.394 160.603 341.951 160.75 342.637 160.75C343.419 160.75 344.039 160.584 344.498 160.253C344.962 159.917 345.194 159.514 345.194 159.045C345.194 158.667 345.062 158.349 344.796 158.094C344.531 157.833 344.124 157.639 343.575 157.511L341.757 157.085C340.758 156.848 340.024 156.482 339.555 155.984C339.091 155.482 338.859 154.855 338.859 154.102C338.859 153.487 339.032 152.942 339.377 152.469C339.728 151.995 340.204 151.624 340.805 151.354C341.411 151.084 342.098 150.949 342.865 150.949C343.944 150.949 344.792 151.186 345.407 151.659C346.028 152.133 346.468 152.758 346.728 153.534Z" fill="white"/>
<path d="M331.934 162.227C330.883 162.227 329.976 161.995 329.214 161.531C328.456 161.062 327.872 160.409 327.46 159.571C327.052 158.728 326.849 157.748 326.849 156.631C326.849 155.513 327.052 154.528 327.46 153.676C327.872 152.819 328.445 152.152 329.178 151.673C329.917 151.19 330.779 150.949 331.764 150.949C332.332 150.949 332.893 151.044 333.447 151.233C334.001 151.422 334.505 151.73 334.96 152.156C335.414 152.578 335.776 153.136 336.046 153.832C336.316 154.528 336.451 155.385 336.451 156.403V157.114H328.042V155.665H334.747C334.747 155.049 334.623 154.5 334.377 154.017C334.136 153.534 333.79 153.153 333.34 152.874C332.895 152.594 332.37 152.455 331.764 152.455C331.096 152.455 330.518 152.62 330.031 152.952C329.548 153.278 329.176 153.705 328.916 154.23C328.655 154.756 328.525 155.319 328.525 155.92V156.886C328.525 157.71 328.667 158.409 328.951 158.982C329.24 159.55 329.64 159.983 330.151 160.281C330.663 160.575 331.257 160.722 331.934 160.722C332.374 160.722 332.772 160.66 333.127 160.537C333.487 160.409 333.797 160.22 334.058 159.969C334.318 159.713 334.519 159.396 334.661 159.017L336.281 159.472C336.11 160.021 335.824 160.504 335.421 160.92C335.019 161.332 334.522 161.654 333.93 161.886C333.338 162.114 332.673 162.227 331.934 162.227Z" fill="white"/>
<path d="M317.701 162H313.212V147.455H317.9C319.311 147.455 320.518 147.746 321.522 148.328C322.526 148.906 323.295 149.737 323.83 150.821C324.365 151.901 324.633 153.193 324.633 154.699C324.633 156.214 324.363 157.519 323.823 158.612C323.283 159.701 322.497 160.539 321.465 161.126C320.433 161.709 319.178 162 317.701 162ZM314.974 160.438H317.587C318.79 160.438 319.787 160.206 320.577 159.742C321.368 159.278 321.958 158.617 322.346 157.76C322.734 156.903 322.928 155.883 322.928 154.699C322.928 153.525 322.737 152.514 322.353 151.666C321.97 150.814 321.397 150.161 320.634 149.706C319.872 149.247 318.923 149.017 317.786 149.017H314.974V160.438Z" fill="white"/>
<path d="M257.428 162.227C256.377 162.227 255.47 161.995 254.708 161.531C253.951 161.062 253.366 160.409 252.954 159.571C252.547 158.728 252.343 157.748 252.343 156.631C252.343 155.513 252.547 154.528 252.954 153.676C253.366 152.819 253.939 152.152 254.673 151.673C255.411 151.19 256.273 150.949 257.258 150.949C257.826 150.949 258.387 151.044 258.941 151.233C259.495 151.422 259.999 151.73 260.454 152.156C260.908 152.578 261.271 153.136 261.54 153.832C261.81 154.528 261.945 155.385 261.945 156.403V157.114H253.536V155.665H260.241C260.241 155.049 260.118 154.5 259.871 154.017C259.63 153.534 259.284 153.153 258.834 152.874C258.389 152.594 257.864 152.455 257.258 152.455C256.59 152.455 256.013 152.62 255.525 152.952C255.042 153.278 254.67 153.705 254.41 154.23C254.149 154.756 254.019 155.319 254.019 155.92V156.886C254.019 157.71 254.161 158.409 254.445 158.982C254.734 159.55 255.134 159.983 255.646 160.281C256.157 160.575 256.751 160.722 257.428 160.722C257.869 160.722 258.266 160.66 258.621 160.537C258.981 160.409 259.291 160.22 259.552 159.969C259.812 159.713 260.013 159.396 260.156 159.017L261.775 159.472C261.604 160.021 261.318 160.504 260.915 160.92C260.513 161.332 260.016 161.654 259.424 161.886C258.832 162.114 258.167 162.227 257.428 162.227Z" fill="white"/>
<path d="M246.114 162.227C245.092 162.227 244.211 161.986 243.472 161.503C242.734 161.02 242.165 160.355 241.768 159.507C241.37 158.66 241.171 157.691 241.171 156.602C241.171 155.494 241.375 154.517 241.782 153.669C242.194 152.817 242.767 152.152 243.501 151.673C244.239 151.19 245.101 150.949 246.086 150.949C246.853 150.949 247.544 151.091 248.16 151.375C248.775 151.659 249.28 152.057 249.673 152.568C250.066 153.08 250.309 153.676 250.404 154.358H248.728C248.6 153.861 248.316 153.42 247.876 153.037C247.44 152.649 246.853 152.455 246.114 152.455C245.461 152.455 244.888 152.625 244.396 152.966C243.908 153.302 243.527 153.778 243.252 154.393C242.982 155.004 242.847 155.722 242.847 156.545C242.847 157.388 242.98 158.122 243.245 158.747C243.515 159.372 243.894 159.857 244.381 160.203C244.874 160.549 245.451 160.722 246.114 160.722C246.55 160.722 246.945 160.646 247.3 160.494C247.656 160.343 247.956 160.125 248.202 159.841C248.449 159.557 248.624 159.216 248.728 158.818H250.404C250.309 159.462 250.075 160.042 249.701 160.558C249.332 161.07 248.842 161.477 248.231 161.78C247.625 162.078 246.919 162.227 246.114 162.227Z" fill="white"/>
<path d="M231.66 155.437V162H229.983V151.091H231.603V152.795H231.745C232 152.241 232.389 151.796 232.91 151.46C233.43 151.119 234.103 150.949 234.927 150.949C235.665 150.949 236.312 151.1 236.866 151.403C237.419 151.702 237.85 152.156 238.158 152.767C238.466 153.373 238.62 154.14 238.62 155.068V162H236.944V155.182C236.944 154.325 236.721 153.657 236.276 153.179C235.831 152.696 235.22 152.455 234.444 152.455C233.909 152.455 233.43 152.571 233.009 152.803C232.592 153.035 232.263 153.373 232.022 153.818C231.78 154.263 231.66 154.803 231.66 155.437Z" fill="white"/>
<path d="M222.917 162.227C221.865 162.227 220.959 161.995 220.196 161.531C219.439 161.062 218.854 160.409 218.442 159.571C218.035 158.728 217.831 157.748 217.831 156.631C217.831 155.513 218.035 154.528 218.442 153.676C218.854 152.819 219.427 152.152 220.161 151.673C220.899 151.19 221.761 150.949 222.746 150.949C223.314 150.949 223.875 151.044 224.429 151.233C224.983 151.422 225.488 151.73 225.942 152.156C226.397 152.578 226.759 153.136 227.029 153.832C227.299 154.528 227.434 155.385 227.434 156.403V157.114H219.024V155.665H225.729C225.729 155.049 225.606 154.5 225.36 154.017C225.118 153.534 224.773 153.153 224.323 152.874C223.878 152.594 223.352 152.455 222.746 152.455C222.078 152.455 221.501 152.62 221.013 152.952C220.53 153.278 220.158 153.705 219.898 154.23C219.638 154.756 219.507 155.319 219.507 155.92V156.886C219.507 157.71 219.649 158.409 219.934 158.982C220.222 159.55 220.622 159.983 221.134 160.281C221.645 160.575 222.239 160.722 222.917 160.722C223.357 160.722 223.755 160.66 224.11 160.537C224.47 160.409 224.78 160.22 225.04 159.969C225.301 159.713 225.502 159.396 225.644 159.017L227.263 159.472C227.093 160.021 226.806 160.504 226.404 160.92C226.001 161.332 225.504 161.654 224.912 161.886C224.32 162.114 223.655 162.227 222.917 162.227Z" fill="white"/>
<path d="M213.597 162V151.091H215.273V162H213.597ZM214.449 149.273C214.122 149.273 213.84 149.161 213.604 148.939C213.372 148.716 213.256 148.449 213.256 148.136C213.256 147.824 213.372 147.556 213.604 147.334C213.84 147.111 214.122 147 214.449 147C214.776 147 215.055 147.111 215.287 147.334C215.524 147.556 215.642 147.824 215.642 148.136C215.642 148.449 215.524 148.716 215.287 148.939C215.055 149.161 214.776 149.273 214.449 149.273Z" fill="white"/>
<path d="M206.155 162V151.091H207.775V152.739H207.888C208.087 152.199 208.447 151.761 208.968 151.425C209.489 151.088 210.076 150.92 210.729 150.92C210.852 150.92 211.006 150.923 211.191 150.928C211.375 150.932 211.515 150.939 211.61 150.949V152.653C211.553 152.639 211.423 152.618 211.219 152.589C211.02 152.556 210.81 152.54 210.587 152.54C210.057 152.54 209.583 152.651 209.167 152.874C208.755 153.091 208.428 153.394 208.187 153.783C207.95 154.166 207.831 154.604 207.831 155.097V162H206.155Z" fill="white"/>
<path d="M199.088 162.227C198.037 162.227 197.131 161.995 196.368 161.531C195.611 161.062 195.026 160.409 194.614 159.571C194.207 158.728 194.003 157.748 194.003 156.631C194.003 155.513 194.207 154.528 194.614 153.676C195.026 152.819 195.599 152.152 196.333 151.673C197.071 151.19 197.933 150.949 198.918 150.949C199.486 150.949 200.047 151.044 200.601 151.233C201.155 151.422 201.659 151.73 202.114 152.156C202.569 152.578 202.931 153.136 203.201 153.832C203.471 154.528 203.605 155.385 203.605 156.403V157.114H195.196V155.665H201.901C201.901 155.049 201.778 154.5 201.532 154.017C201.29 153.534 200.944 153.153 200.495 152.874C200.05 152.594 199.524 152.455 198.918 152.455C198.25 152.455 197.673 152.62 197.185 152.952C196.702 153.278 196.33 153.705 196.07 154.23C195.81 154.756 195.679 155.319 195.679 155.92V156.886C195.679 157.71 195.821 158.409 196.105 158.982C196.394 159.55 196.794 159.983 197.306 160.281C197.817 160.575 198.411 160.722 199.088 160.722C199.529 160.722 199.926 160.66 200.282 160.537C200.641 160.409 200.952 160.22 201.212 159.969C201.472 159.713 201.674 159.396 201.816 159.017L203.435 159.472C203.265 160.021 202.978 160.504 202.576 160.92C202.173 161.332 201.676 161.654 201.084 161.886C200.492 162.114 199.827 162.227 199.088 162.227Z" fill="white"/>
<path d="M182.327 166.091V151.091H183.946V152.824H184.145C184.268 152.634 184.439 152.393 184.657 152.099C184.879 151.801 185.196 151.536 185.608 151.304C186.025 151.067 186.589 150.949 187.299 150.949C188.217 150.949 189.027 151.178 189.728 151.638C190.428 152.097 190.975 152.748 191.368 153.591C191.761 154.434 191.958 155.428 191.958 156.574C191.958 157.729 191.761 158.731 191.368 159.578C190.975 160.421 190.431 161.074 189.735 161.538C189.039 161.998 188.236 162.227 187.327 162.227C186.626 162.227 186.065 162.111 185.644 161.879C185.223 161.643 184.898 161.375 184.671 161.077C184.444 160.774 184.268 160.523 184.145 160.324H184.003V166.091H182.327ZM183.975 156.545C183.975 157.369 184.096 158.096 184.337 158.726C184.579 159.351 184.931 159.841 185.395 160.196C185.859 160.546 186.428 160.722 187.1 160.722C187.801 160.722 188.385 160.537 188.854 160.168C189.328 159.794 189.683 159.292 189.919 158.662C190.161 158.027 190.282 157.322 190.282 156.545C190.282 155.778 190.163 155.087 189.927 154.472C189.695 153.851 189.342 153.361 188.868 153.001C188.4 152.637 187.81 152.455 187.1 152.455C186.418 152.455 185.845 152.627 185.381 152.973C184.917 153.314 184.567 153.792 184.33 154.408C184.093 155.018 183.975 155.731 183.975 156.545Z" fill="white"/>
<path d="M172.776 151.091L175.39 155.551L178.004 151.091H179.935L176.413 156.545L179.935 162H178.004L175.39 157.767L172.776 162H170.844L174.31 156.545L170.844 151.091H172.776Z" fill="white"/>
<path d="M159.801 162V147.455H168.579V149.017H161.562V153.932H168.124V155.494H161.562V160.438H168.693V162H159.801Z" fill="white"/>
<path d="M500.88 151.091V152.511H495.227V151.091H500.88ZM496.874 148.477H498.55V158.875C498.55 159.349 498.619 159.704 498.756 159.94C498.898 160.172 499.078 160.329 499.296 160.409C499.519 160.485 499.753 160.523 499.999 160.523C500.184 160.523 500.335 160.513 500.454 160.494C500.572 160.471 500.667 160.452 500.738 160.438L501.079 161.943C500.965 161.986 500.807 162.028 500.603 162.071C500.399 162.118 500.141 162.142 499.829 162.142C499.355 162.142 498.891 162.04 498.437 161.837C497.987 161.633 497.613 161.323 497.315 160.906C497.021 160.49 496.874 159.964 496.874 159.33V148.477Z" fill="white"/>
<path d="M493.786 151.091V152.511H487.906V151.091H493.786ZM489.667 162V149.585C489.667 148.96 489.814 148.439 490.107 148.023C490.401 147.606 490.782 147.294 491.251 147.085C491.72 146.877 492.214 146.773 492.735 146.773C493.147 146.773 493.483 146.806 493.744 146.872C494.004 146.938 494.198 147 494.326 147.057L493.843 148.506C493.758 148.477 493.64 148.442 493.488 148.399C493.341 148.357 493.147 148.335 492.906 148.335C492.352 148.335 491.952 148.475 491.705 148.754C491.464 149.034 491.343 149.443 491.343 149.983V162H489.667Z" fill="white"/>
<path d="M480.869 162.256C480.178 162.256 479.551 162.125 478.987 161.865C478.424 161.6 477.976 161.219 477.645 160.722C477.313 160.22 477.148 159.614 477.148 158.903C477.148 158.278 477.271 157.772 477.517 157.384C477.763 156.991 478.092 156.683 478.504 156.46C478.916 156.238 479.371 156.072 479.868 155.963C480.37 155.849 480.874 155.759 481.381 155.693C482.044 155.608 482.581 155.544 482.993 155.501C483.41 155.454 483.713 155.376 483.902 155.267C484.096 155.158 484.193 154.969 484.193 154.699V154.642C484.193 153.941 484.001 153.397 483.618 153.009C483.239 152.62 482.664 152.426 481.892 152.426C481.092 152.426 480.464 152.601 480.01 152.952C479.555 153.302 479.236 153.676 479.051 154.074L477.46 153.506C477.744 152.843 478.123 152.327 478.597 151.957C479.075 151.583 479.596 151.323 480.159 151.176C480.727 151.025 481.286 150.949 481.835 150.949C482.186 150.949 482.588 150.991 483.043 151.077C483.502 151.157 483.945 151.325 484.371 151.581C484.802 151.837 485.159 152.223 485.443 152.739C485.727 153.255 485.869 153.946 485.869 154.812V162H484.193V160.523H484.108C483.994 160.759 483.805 161.013 483.54 161.283C483.275 161.553 482.922 161.782 482.482 161.972C482.041 162.161 481.504 162.256 480.869 162.256ZM481.125 160.75C481.788 160.75 482.347 160.62 482.801 160.359C483.26 160.099 483.606 159.763 483.838 159.351C484.075 158.939 484.193 158.506 484.193 158.051V156.517C484.122 156.602 483.966 156.68 483.724 156.751C483.488 156.818 483.213 156.877 482.901 156.929C482.593 156.976 482.292 157.019 481.999 157.057C481.71 157.09 481.475 157.118 481.295 157.142C480.86 157.199 480.453 157.291 480.074 157.419C479.7 157.542 479.397 157.729 479.165 157.98C478.937 158.226 478.824 158.562 478.824 158.989C478.824 159.571 479.039 160.011 479.47 160.31C479.906 160.603 480.457 160.75 481.125 160.75Z" fill="white"/>
<path d="M470.218 162V151.091H471.837V152.739H471.951C472.15 152.199 472.509 151.761 473.03 151.425C473.551 151.088 474.138 150.92 474.792 150.92C474.915 150.92 475.069 150.923 475.253 150.928C475.438 150.932 475.578 150.939 475.672 150.949V152.653C475.616 152.639 475.485 152.618 475.282 152.589C475.083 152.556 474.872 152.54 474.65 152.54C474.119 152.54 473.646 152.651 473.229 152.874C472.817 153.091 472.491 153.394 472.249 153.783C472.012 154.166 471.894 154.604 471.894 155.097V162H470.218Z" fill="white"/>
<path d="M467.599 152H465.837C465.733 151.493 465.551 151.048 465.29 150.665C465.035 150.281 464.722 149.959 464.353 149.699C463.988 149.434 463.584 149.235 463.138 149.102C462.693 148.97 462.229 148.903 461.746 148.903C460.866 148.903 460.068 149.126 459.353 149.571C458.643 150.016 458.077 150.672 457.655 151.538C457.239 152.405 457.03 153.468 457.03 154.727C457.03 155.987 457.239 157.05 457.655 157.916C458.077 158.783 458.643 159.439 459.353 159.884C460.068 160.329 460.866 160.551 461.746 160.551C462.229 160.551 462.693 160.485 463.138 160.352C463.584 160.22 463.988 160.023 464.353 159.763C464.722 159.498 465.035 159.173 465.29 158.79C465.551 158.402 465.733 157.956 465.837 157.455H467.599C467.466 158.198 467.225 158.863 466.874 159.45C466.524 160.037 466.088 160.537 465.567 160.949C465.047 161.356 464.462 161.666 463.813 161.879C463.169 162.092 462.48 162.199 461.746 162.199C460.506 162.199 459.403 161.896 458.437 161.29C457.471 160.684 456.711 159.822 456.157 158.705C455.603 157.587 455.326 156.261 455.326 154.727C455.326 153.193 455.603 151.867 456.157 150.75C456.711 149.633 457.471 148.771 458.437 148.165C459.403 147.559 460.506 147.256 461.746 147.256C462.48 147.256 463.169 147.362 463.813 147.575C464.462 147.788 465.047 148.101 465.567 148.513C466.088 148.92 466.524 149.417 466.874 150.004C467.225 150.587 467.466 151.252 467.599 152Z" fill="white"/>
<path d="M18.7603 162H16.9137L22.2546 147.455H24.0728L29.4137 162H27.5671L23.2205 149.756H23.1069L18.7603 162ZM19.4421 156.318H26.8853V157.881H19.4421V156.318ZM36.0259 162.227C34.9748 162.227 34.0681 161.995 33.3058 161.531C32.5482 161.062 31.9634 160.409 31.5515 159.571C31.1443 158.728 30.9407 157.748 30.9407 156.631C30.9407 155.513 31.1443 154.528 31.5515 153.676C31.9634 152.819 32.5363 152.152 33.2702 151.673C34.0089 151.19 34.8706 150.949 35.8555 150.949C36.4237 150.949 36.9847 151.044 37.5387 151.233C38.0927 151.422 38.5969 151.73 39.0515 152.156C39.506 152.578 39.8683 153.136 40.1381 153.832C40.408 154.528 40.543 155.385 40.543 156.403V157.114H32.1339V155.665H38.8384C38.8384 155.049 38.7153 154.5 38.4691 154.017C38.2276 153.534 37.882 153.153 37.4322 152.874C36.9871 152.594 36.4615 152.455 35.8555 152.455C35.1879 152.455 34.6102 152.62 34.1225 152.952C33.6396 153.278 33.2679 153.705 33.0075 154.23C32.747 154.756 32.6168 155.319 32.6168 155.92V156.886C32.6168 157.71 32.7589 158.409 33.043 158.982C33.3318 159.55 33.7319 159.983 34.2433 160.281C34.7546 160.575 35.3488 160.722 36.0259 160.722C36.4663 160.722 36.864 160.66 37.2191 160.537C37.579 160.409 37.8891 160.22 38.1495 159.969C38.4099 159.713 38.6112 159.396 38.7532 159.017L40.3725 159.472C40.2021 160.021 39.9156 160.504 39.5131 160.92C39.1107 161.332 38.6135 161.654 38.0217 161.886C37.4298 162.114 36.7646 162.227 36.0259 162.227ZM50.82 153.534L49.3143 153.96C49.2196 153.709 49.0799 153.465 48.8952 153.229C48.7153 152.987 48.4691 152.788 48.1566 152.632C47.8441 152.476 47.444 152.398 46.9563 152.398C46.2887 152.398 45.7324 152.552 45.2873 152.859C44.8469 153.162 44.6268 153.548 44.6268 154.017C44.6268 154.434 44.7783 154.763 45.0813 155.004C45.3844 155.246 45.8578 155.447 46.5018 155.608L48.1211 156.006C49.0965 156.242 49.8233 156.605 50.3015 157.092C50.7797 157.575 51.0188 158.198 51.0188 158.96C51.0188 159.585 50.8389 160.144 50.479 160.636C50.1239 161.129 49.6268 161.517 48.9876 161.801C48.3484 162.085 47.605 162.227 46.7575 162.227C45.6448 162.227 44.7238 161.986 43.9947 161.503C43.2655 161.02 42.8039 160.314 42.6097 159.386L44.2006 158.989C44.3522 159.576 44.6386 160.016 45.06 160.31C45.4862 160.603 46.0425 160.75 46.729 160.75C47.5103 160.75 48.1306 160.584 48.5898 160.253C49.0539 159.917 49.2859 159.514 49.2859 159.045C49.2859 158.667 49.1533 158.349 48.8881 158.094C48.623 157.833 48.2158 157.639 47.6665 157.511L45.8484 157.085C44.8493 156.848 44.1154 156.482 43.6467 155.984C43.1826 155.482 42.9506 154.855 42.9506 154.102C42.9506 153.487 43.1235 152.942 43.4691 152.469C43.8195 151.995 44.2953 151.624 44.8967 151.354C45.5027 151.084 46.1893 150.949 46.9563 150.949C48.0359 150.949 48.8834 151.186 49.4989 151.659C50.1192 152.133 50.5595 152.758 50.82 153.534ZM58.2862 151.091V152.511H52.6328V151.091H58.2862ZM54.2805 148.477H55.9567V158.875C55.9567 159.348 56.0253 159.704 56.1626 159.94C56.3047 160.172 56.4846 160.329 56.7024 160.409C56.925 160.485 57.1593 160.523 57.4055 160.523C57.5902 160.523 57.7417 160.513 57.8601 160.494C57.9785 160.471 58.0732 160.452 58.1442 160.438L58.4851 161.943C58.3714 161.986 58.2128 162.028 58.0092 162.071C57.8056 162.118 57.5476 162.142 57.2351 162.142C56.7616 162.142 56.2976 162.04 55.843 161.837C55.3932 161.633 55.0192 161.323 54.7209 160.906C54.4273 160.49 54.2805 159.964 54.2805 159.33V148.477ZM62.718 155.438V162H61.0419V147.455H62.718V152.795H62.8601C63.1158 152.232 63.4993 151.785 64.0107 151.453C64.5268 151.117 65.2133 150.949 66.0703 150.949C66.8137 150.949 67.4647 151.098 68.0234 151.396C68.5821 151.69 69.0154 152.142 69.3232 152.753C69.6357 153.359 69.7919 154.131 69.7919 155.068V162H68.1158V155.182C68.1158 154.315 67.8909 153.645 67.4411 153.172C66.996 152.694 66.3781 152.455 65.5874 152.455C65.0381 152.455 64.5457 152.571 64.1101 152.803C63.6792 153.035 63.3383 153.373 63.0874 153.818C62.8411 154.263 62.718 154.803 62.718 155.438ZM77.4322 162.227C76.381 162.227 75.4743 161.995 74.712 161.531C73.9544 161.062 73.3697 160.409 72.9577 159.571C72.5505 158.728 72.3469 157.748 72.3469 156.631C72.3469 155.513 72.5505 154.528 72.9577 153.676C73.3697 152.819 73.9426 152.152 74.6765 151.673C75.4151 151.19 76.2769 150.949 77.2617 150.949C77.8299 150.949 78.391 151.044 78.945 151.233C79.4989 151.422 80.0032 151.73 80.4577 152.156C80.9123 152.578 81.2745 153.136 81.5444 153.832C81.8143 154.528 81.9492 155.385 81.9492 156.403V157.114H73.5401V155.665H80.2447C80.2447 155.049 80.1216 154.5 79.8754 154.017C79.6339 153.534 79.2882 153.153 78.8384 152.874C78.3933 152.594 77.8678 152.455 77.2617 152.455C76.5941 152.455 76.0165 152.62 75.5288 152.952C75.0458 153.278 74.6741 153.705 74.4137 154.23C74.1533 154.756 74.0231 155.319 74.0231 155.92V156.886C74.0231 157.71 74.1651 158.409 74.4492 158.982C74.738 159.55 75.1381 159.983 75.6495 160.281C76.1609 160.575 76.7551 160.722 77.4322 160.722C77.8725 160.722 78.2702 160.66 78.6254 160.537C78.9852 160.409 79.2953 160.22 79.5558 159.969C79.8162 159.713 80.0174 159.396 80.1594 159.017L81.7788 159.472C81.6083 160.021 81.3219 160.504 80.9194 160.92C80.5169 161.332 80.0198 161.654 79.4279 161.886C78.8361 162.114 78.1708 162.227 77.4322 162.227ZM89.2433 151.091V152.511H83.5898V151.091H89.2433ZM85.2376 148.477H86.9137V158.875C86.9137 159.348 86.9824 159.704 87.1197 159.94C87.2617 160.172 87.4416 160.329 87.6594 160.409C87.882 160.485 88.1164 160.523 88.3626 160.523C88.5472 160.523 88.6987 160.513 88.8171 160.494C88.9355 160.471 89.0302 160.452 89.1012 160.438L89.4421 161.943C89.3285 161.986 89.1699 162.028 88.9663 162.071C88.7627 162.118 88.5046 162.142 88.1921 162.142C87.7186 162.142 87.2546 162.04 86.8001 161.837C86.3503 161.633 85.9762 161.323 85.6779 160.906C85.3844 160.49 85.2376 159.964 85.2376 159.33V148.477ZM91.7646 162V151.091H93.4407V162H91.7646ZM92.6168 149.273C92.2901 149.273 92.0084 149.161 91.7717 148.939C91.5397 148.716 91.4237 148.449 91.4237 148.136C91.4237 147.824 91.5397 147.556 91.7717 147.334C92.0084 147.111 92.2901 147 92.6168 147C92.9435 147 93.2229 147.111 93.4549 147.334C93.6916 147.556 93.81 147.824 93.81 148.136C93.81 148.449 93.6916 148.716 93.4549 148.939C93.2229 149.161 92.9435 149.273 92.6168 149.273ZM100.942 162.227C99.9197 162.227 99.0391 161.986 98.3004 161.503C97.5618 161.02 96.9936 160.355 96.5959 159.507C96.1982 158.66 95.9993 157.691 95.9993 156.602C95.9993 155.494 96.2029 154.517 96.6101 153.669C97.022 152.817 97.5949 152.152 98.3288 151.673C99.0675 151.19 99.9292 150.949 100.914 150.949C101.681 150.949 102.372 151.091 102.988 151.375C103.603 151.659 104.108 152.057 104.501 152.568C104.894 153.08 105.138 153.676 105.232 154.358H103.556C103.428 153.861 103.144 153.42 102.704 153.037C102.268 152.649 101.681 152.455 100.942 152.455C100.289 152.455 99.7161 152.625 99.2237 152.966C98.736 153.302 98.3549 153.778 98.0803 154.393C97.8104 155.004 97.6754 155.722 97.6754 156.545C97.6754 157.388 97.808 158.122 98.0732 158.747C98.343 159.372 98.7218 159.857 99.2095 160.203C99.7019 160.549 100.28 160.722 100.942 160.722C101.378 160.722 101.773 160.646 102.129 160.494C102.484 160.343 102.784 160.125 103.031 159.841C103.277 159.557 103.452 159.216 103.556 158.818H105.232C105.138 159.462 104.903 160.042 104.529 160.558C104.16 161.07 103.67 161.477 103.059 161.78C102.453 162.078 101.747 162.227 100.942 162.227ZM115.41 153.534L113.904 153.96C113.809 153.709 113.67 153.465 113.485 153.229C113.305 152.987 113.059 152.788 112.746 152.632C112.434 152.476 112.034 152.398 111.546 152.398C110.879 152.398 110.322 152.552 109.877 152.859C109.437 153.162 109.217 153.548 109.217 154.017C109.217 154.434 109.368 154.763 109.671 155.004C109.974 155.246 110.448 155.447 111.092 155.608L112.711 156.006C113.686 156.242 114.413 156.605 114.891 157.092C115.37 157.575 115.609 158.198 115.609 158.96C115.609 159.585 115.429 160.144 115.069 160.636C114.714 161.129 114.217 161.517 113.577 161.801C112.938 162.085 112.195 162.227 111.347 162.227C110.235 162.227 109.314 161.986 108.585 161.503C107.855 161.02 107.394 160.314 107.2 159.386L108.79 158.989C108.942 159.576 109.228 160.016 109.65 160.31C110.076 160.603 110.632 160.75 111.319 160.75C112.1 160.75 112.72 160.584 113.18 160.253C113.644 159.917 113.876 159.514 113.876 159.045C113.876 158.667 113.743 158.349 113.478 158.094C113.213 157.833 112.806 157.639 112.256 157.511L110.438 157.085C109.439 156.848 108.705 156.482 108.237 155.984C107.772 155.482 107.54 154.855 107.54 154.102C107.54 153.487 107.713 152.942 108.059 152.469C108.409 151.995 108.885 151.624 109.487 151.354C110.093 151.084 110.779 150.949 111.546 150.949C112.626 150.949 113.473 151.186 114.089 151.659C114.709 152.133 115.149 152.758 115.41 153.534Z" fill="white"/>
<path d="M317.701 162H313.213V147.455H317.9C319.311 147.455 320.518 147.746 321.522 148.328C322.526 148.906 323.295 149.737 323.83 150.821C324.365 151.901 324.633 153.193 324.633 154.699C324.633 156.214 324.363 157.518 323.823 158.612C323.284 159.701 322.498 160.539 321.465 161.126C320.433 161.709 319.178 162 317.701 162ZM314.974 160.438H317.588C318.79 160.438 319.787 160.205 320.578 159.741C321.368 159.277 321.958 158.617 322.346 157.76C322.734 156.903 322.928 155.883 322.928 154.699C322.928 153.525 322.737 152.514 322.353 151.666C321.97 150.814 321.397 150.161 320.634 149.706C319.872 149.247 318.923 149.017 317.786 149.017H314.974V160.438ZM331.934 162.227C330.883 162.227 329.976 161.995 329.214 161.531C328.456 161.062 327.872 160.409 327.46 159.571C327.052 158.728 326.849 157.748 326.849 156.631C326.849 155.513 327.052 154.528 327.46 153.676C327.872 152.819 328.445 152.152 329.178 151.673C329.917 151.19 330.779 150.949 331.764 150.949C332.332 150.949 332.893 151.044 333.447 151.233C334.001 151.422 334.505 151.73 334.96 152.156C335.414 152.578 335.776 153.136 336.046 153.832C336.316 154.528 336.451 155.385 336.451 156.403V157.114H328.042V155.665H334.747C334.747 155.049 334.624 154.5 334.377 154.017C334.136 153.534 333.79 153.153 333.34 152.874C332.895 152.594 332.37 152.455 331.764 152.455C331.096 152.455 330.518 152.62 330.031 152.952C329.548 153.278 329.176 153.705 328.916 154.23C328.655 154.756 328.525 155.319 328.525 155.92V156.886C328.525 157.71 328.667 158.409 328.951 158.982C329.24 159.55 329.64 159.983 330.151 160.281C330.663 160.575 331.257 160.722 331.934 160.722C332.374 160.722 332.772 160.66 333.127 160.537C333.487 160.409 333.797 160.22 334.058 159.969C334.318 159.713 334.519 159.396 334.661 159.017L336.281 159.472C336.11 160.021 335.824 160.504 335.421 160.92C335.019 161.332 334.522 161.654 333.93 161.886C333.338 162.114 332.673 162.227 331.934 162.227ZM346.728 153.534L345.222 153.96C345.128 153.709 344.988 153.465 344.803 153.229C344.624 152.987 344.377 152.788 344.065 152.632C343.752 152.476 343.352 152.398 342.865 152.398C342.197 152.398 341.641 152.552 341.195 152.859C340.755 153.162 340.535 153.548 340.535 154.017C340.535 154.434 340.686 154.763 340.99 155.004C341.293 155.246 341.766 155.447 342.41 155.608L344.029 156.006C345.005 156.242 345.731 156.605 346.21 157.092C346.688 157.575 346.927 158.198 346.927 158.96C346.927 159.585 346.747 160.144 346.387 160.636C346.032 161.129 345.535 161.517 344.896 161.801C344.257 162.085 343.513 162.227 342.666 162.227C341.553 162.227 340.632 161.986 339.903 161.503C339.174 161.02 338.712 160.314 338.518 159.386L340.109 158.989C340.26 159.576 340.547 160.016 340.968 160.31C341.394 160.603 341.951 160.75 342.637 160.75C343.419 160.75 344.039 160.584 344.498 160.253C344.962 159.917 345.194 159.514 345.194 159.045C345.194 158.667 345.061 158.349 344.796 158.094C344.531 157.833 344.124 157.639 343.575 157.511L341.757 157.085C340.758 156.848 340.024 156.482 339.555 155.984C339.091 155.482 338.859 154.855 338.859 154.102C338.859 153.487 339.032 152.942 339.377 152.469C339.728 151.995 340.204 151.624 340.805 151.354C341.411 151.084 342.097 150.949 342.865 150.949C343.944 150.949 344.792 151.186 345.407 151.659C346.027 152.133 346.468 152.758 346.728 153.534ZM349.45 162V151.091H351.126V162H349.45ZM350.302 149.273C349.976 149.273 349.694 149.161 349.457 148.939C349.225 148.716 349.109 148.449 349.109 148.136C349.109 147.824 349.225 147.556 349.457 147.334C349.694 147.111 349.976 147 350.302 147C350.629 147 350.908 147.111 351.14 147.334C351.377 147.556 351.496 147.824 351.496 148.136C351.496 148.449 351.377 148.716 351.14 148.939C350.908 149.161 350.629 149.273 350.302 149.273ZM358.6 166.318C357.79 166.318 357.094 166.214 356.512 166.006C355.929 165.802 355.444 165.532 355.056 165.196C354.672 164.865 354.367 164.509 354.139 164.131L355.475 163.193C355.626 163.392 355.818 163.619 356.05 163.875C356.282 164.135 356.599 164.36 357.002 164.55C357.409 164.744 357.941 164.841 358.6 164.841C359.48 164.841 360.207 164.628 360.78 164.202C361.353 163.776 361.639 163.108 361.639 162.199V159.983H361.497C361.374 160.182 361.199 160.428 360.972 160.722C360.749 161.01 360.427 161.268 360.006 161.496C359.589 161.718 359.026 161.83 358.316 161.83C357.435 161.83 356.644 161.621 355.943 161.205C355.247 160.788 354.696 160.182 354.289 159.386C353.886 158.591 353.685 157.625 353.685 156.489C353.685 155.371 353.881 154.398 354.274 153.57C354.667 152.736 355.214 152.092 355.915 151.638C356.616 151.179 357.425 150.949 358.344 150.949C359.054 150.949 359.618 151.067 360.034 151.304C360.456 151.536 360.778 151.801 361 152.099C361.227 152.393 361.403 152.634 361.526 152.824H361.696V151.091H363.316V162.312C363.316 163.25 363.102 164.012 362.676 164.599C362.255 165.191 361.687 165.625 360.972 165.899C360.262 166.179 359.471 166.318 358.6 166.318ZM358.543 160.324C359.215 160.324 359.783 160.17 360.247 159.862C360.711 159.554 361.064 159.112 361.306 158.534C361.547 157.956 361.668 157.265 361.668 156.46C361.668 155.674 361.549 154.981 361.313 154.379C361.076 153.778 360.726 153.307 360.262 152.966C359.798 152.625 359.225 152.455 358.543 152.455C357.833 152.455 357.241 152.634 356.767 152.994C356.298 153.354 355.946 153.837 355.709 154.443C355.477 155.049 355.361 155.722 355.361 156.46C355.361 157.218 355.479 157.888 355.716 158.47C355.958 159.048 356.313 159.502 356.781 159.834C357.255 160.161 357.842 160.324 358.543 160.324ZM368.06 155.438V162H366.384V151.091H368.003V152.795H368.145C368.401 152.241 368.789 151.796 369.31 151.46C369.831 151.119 370.503 150.949 371.327 150.949C372.066 150.949 372.712 151.1 373.266 151.403C373.82 151.702 374.251 152.156 374.558 152.767C374.866 153.373 375.02 154.14 375.02 155.068V162H373.344V155.182C373.344 154.325 373.121 153.657 372.676 153.179C372.231 152.696 371.62 152.455 370.844 152.455C370.309 152.455 369.831 152.571 369.409 152.803C368.993 153.035 368.664 153.373 368.422 153.818C368.181 154.263 368.06 154.803 368.06 155.438Z" fill="white"/>
<path d="M159.8 162V147.455H168.579V149.017H161.562V153.932H168.124V155.494H161.562V160.438H168.692V162H159.8ZM172.776 151.091L175.39 155.551L178.004 151.091H179.935L176.413 156.545L179.935 162H178.004L175.39 157.767L172.776 162H170.844L174.31 156.545L170.844 151.091H172.776ZM182.327 166.091V151.091H183.946V152.824H184.145C184.268 152.634 184.439 152.393 184.657 152.099C184.879 151.801 185.196 151.536 185.608 151.304C186.025 151.067 186.588 150.949 187.299 150.949C188.217 150.949 189.027 151.179 189.728 151.638C190.428 152.097 190.975 152.748 191.368 153.591C191.761 154.434 191.958 155.428 191.958 156.574C191.958 157.729 191.761 158.731 191.368 159.578C190.975 160.421 190.431 161.074 189.735 161.538C189.039 161.998 188.236 162.227 187.327 162.227C186.626 162.227 186.065 162.111 185.644 161.879C185.222 161.643 184.898 161.375 184.671 161.077C184.444 160.774 184.268 160.523 184.145 160.324H184.003V166.091H182.327ZM183.975 156.545C183.975 157.369 184.096 158.096 184.337 158.726C184.578 159.351 184.931 159.841 185.395 160.196C185.859 160.546 186.427 160.722 187.1 160.722C187.801 160.722 188.385 160.537 188.854 160.168C189.328 159.794 189.683 159.292 189.919 158.662C190.161 158.027 190.282 157.322 190.282 156.545C190.282 155.778 190.163 155.087 189.926 154.472C189.694 153.851 189.342 153.361 188.868 153.001C188.4 152.637 187.81 152.455 187.1 152.455C186.418 152.455 185.845 152.627 185.381 152.973C184.917 153.314 184.567 153.792 184.33 154.408C184.093 155.018 183.975 155.731 183.975 156.545ZM199.088 162.227C198.037 162.227 197.131 161.995 196.368 161.531C195.611 161.062 195.026 160.409 194.614 159.571C194.207 158.728 194.003 157.748 194.003 156.631C194.003 155.513 194.207 154.528 194.614 153.676C195.026 152.819 195.599 152.152 196.333 151.673C197.071 151.19 197.933 150.949 198.918 150.949C199.486 150.949 200.047 151.044 200.601 151.233C201.155 151.422 201.659 151.73 202.114 152.156C202.569 152.578 202.931 153.136 203.201 153.832C203.471 154.528 203.605 155.385 203.605 156.403V157.114H195.196V155.665H201.901C201.901 155.049 201.778 154.5 201.532 154.017C201.29 153.534 200.944 153.153 200.495 152.874C200.05 152.594 199.524 152.455 198.918 152.455C198.25 152.455 197.673 152.62 197.185 152.952C196.702 153.278 196.33 153.705 196.07 154.23C195.81 154.756 195.679 155.319 195.679 155.92V156.886C195.679 157.71 195.821 158.409 196.105 158.982C196.394 159.55 196.794 159.983 197.306 160.281C197.817 160.575 198.411 160.722 199.088 160.722C199.529 160.722 199.926 160.66 200.282 160.537C200.641 160.409 200.952 160.22 201.212 159.969C201.472 159.713 201.674 159.396 201.816 159.017L203.435 159.472C203.265 160.021 202.978 160.504 202.576 160.92C202.173 161.332 201.676 161.654 201.084 161.886C200.492 162.114 199.827 162.227 199.088 162.227ZM206.155 162V151.091H207.775V152.739H207.888C208.087 152.199 208.447 151.761 208.968 151.425C209.489 151.089 210.076 150.92 210.729 150.92C210.852 150.92 211.006 150.923 211.191 150.928C211.375 150.932 211.515 150.939 211.61 150.949V152.653C211.553 152.639 211.423 152.618 211.219 152.589C211.02 152.556 210.81 152.54 210.587 152.54C210.057 152.54 209.583 152.651 209.167 152.874C208.755 153.091 208.428 153.394 208.186 153.783C207.95 154.166 207.831 154.604 207.831 155.097V162H206.155ZM213.597 162V151.091H215.273V162H213.597ZM214.449 149.273C214.122 149.273 213.84 149.161 213.604 148.939C213.372 148.716 213.256 148.449 213.256 148.136C213.256 147.824 213.372 147.556 213.604 147.334C213.84 147.111 214.122 147 214.449 147C214.776 147 215.055 147.111 215.287 147.334C215.524 147.556 215.642 147.824 215.642 148.136C215.642 148.449 215.524 148.716 215.287 148.939C215.055 149.161 214.776 149.273 214.449 149.273ZM222.917 162.227C221.865 162.227 220.959 161.995 220.196 161.531C219.439 161.062 218.854 160.409 218.442 159.571C218.035 158.728 217.831 157.748 217.831 156.631C217.831 155.513 218.035 154.528 218.442 153.676C218.854 152.819 219.427 152.152 220.161 151.673C220.9 151.19 221.761 150.949 222.746 150.949C223.314 150.949 223.875 151.044 224.429 151.233C224.983 151.422 225.488 151.73 225.942 152.156C226.397 152.578 226.759 153.136 227.029 153.832C227.299 154.528 227.434 155.385 227.434 156.403V157.114H219.025V155.665H225.729C225.729 155.049 225.606 154.5 225.36 154.017C225.118 153.534 224.773 153.153 224.323 152.874C223.878 152.594 223.352 152.455 222.746 152.455C222.078 152.455 221.501 152.62 221.013 152.952C220.53 153.278 220.158 153.705 219.898 154.23C219.638 154.756 219.507 155.319 219.507 155.92V156.886C219.507 157.71 219.65 158.409 219.934 158.982C220.222 159.55 220.623 159.983 221.134 160.281C221.645 160.575 222.239 160.722 222.917 160.722C223.357 160.722 223.755 160.66 224.11 160.537C224.47 160.409 224.78 160.22 225.04 159.969C225.301 159.713 225.502 159.396 225.644 159.017L227.263 159.472C227.093 160.021 226.806 160.504 226.404 160.92C226.001 161.332 225.504 161.654 224.912 161.886C224.32 162.114 223.655 162.227 222.917 162.227ZM231.659 155.438V162H229.983V151.091H231.603V152.795H231.745C232 152.241 232.389 151.796 232.909 151.46C233.43 151.119 234.103 150.949 234.926 150.949C235.665 150.949 236.311 151.1 236.865 151.403C237.419 151.702 237.85 152.156 238.158 152.767C238.466 153.373 238.62 154.14 238.62 155.068V162H236.944V155.182C236.944 154.325 236.721 153.657 236.276 153.179C235.831 152.696 235.22 152.455 234.444 152.455C233.908 152.455 233.43 152.571 233.009 152.803C232.592 153.035 232.263 153.373 232.022 153.818C231.78 154.263 231.659 154.803 231.659 155.438ZM246.114 162.227C245.092 162.227 244.211 161.986 243.472 161.503C242.734 161.02 242.165 160.355 241.768 159.507C241.37 158.66 241.171 157.691 241.171 156.602C241.171 155.494 241.375 154.517 241.782 153.669C242.194 152.817 242.767 152.152 243.501 151.673C244.239 151.19 245.101 150.949 246.086 150.949C246.853 150.949 247.544 151.091 248.16 151.375C248.775 151.659 249.28 152.057 249.673 152.568C250.066 153.08 250.309 153.676 250.404 154.358H248.728C248.6 153.861 248.316 153.42 247.876 153.037C247.44 152.649 246.853 152.455 246.114 152.455C245.461 152.455 244.888 152.625 244.396 152.966C243.908 153.302 243.527 153.778 243.252 154.393C242.982 155.004 242.847 155.722 242.847 156.545C242.847 157.388 242.98 158.122 243.245 158.747C243.515 159.372 243.894 159.857 244.381 160.203C244.874 160.549 245.451 160.722 246.114 160.722C246.55 160.722 246.945 160.646 247.3 160.494C247.656 160.343 247.956 160.125 248.202 159.841C248.449 159.557 248.624 159.216 248.728 158.818H250.404C250.309 159.462 250.075 160.042 249.701 160.558C249.332 161.07 248.842 161.477 248.231 161.78C247.625 162.078 246.919 162.227 246.114 162.227ZM257.428 162.227C256.377 162.227 255.47 161.995 254.708 161.531C253.951 161.062 253.366 160.409 252.954 159.571C252.547 158.728 252.343 157.748 252.343 156.631C252.343 155.513 252.547 154.528 252.954 153.676C253.366 152.819 253.939 152.152 254.673 151.673C255.411 151.19 256.273 150.949 257.258 150.949C257.826 150.949 258.387 151.044 258.941 151.233C259.495 151.422 259.999 151.73 260.454 152.156C260.908 152.578 261.271 153.136 261.54 153.832C261.81 154.528 261.945 155.385 261.945 156.403V157.114H253.536V155.665H260.241C260.241 155.049 260.118 154.5 259.871 154.017C259.63 153.534 259.284 153.153 258.835 152.874C258.389 152.594 257.864 152.455 257.258 152.455C256.59 152.455 256.013 152.62 255.525 152.952C255.042 153.278 254.67 153.705 254.41 154.23C254.149 154.756 254.019 155.319 254.019 155.92V156.886C254.019 157.71 254.161 158.409 254.445 158.982C254.734 159.55 255.134 159.983 255.646 160.281C256.157 160.575 256.751 160.722 257.428 160.722C257.869 160.722 258.266 160.66 258.621 160.537C258.981 160.409 259.291 160.22 259.552 159.969C259.812 159.713 260.013 159.396 260.156 159.017L261.775 159.472C261.604 160.021 261.318 160.504 260.915 160.92C260.513 161.332 260.016 161.654 259.424 161.886C258.832 162.114 258.167 162.227 257.428 162.227Z" fill="white"/>
<path d="M467.599 152H465.837C465.733 151.493 465.551 151.048 465.29 150.665C465.035 150.281 464.722 149.959 464.353 149.699C463.988 149.434 463.584 149.235 463.138 149.102C462.693 148.97 462.229 148.903 461.746 148.903C460.866 148.903 460.068 149.126 459.353 149.571C458.643 150.016 458.077 150.672 457.656 151.538C457.239 152.405 457.031 153.468 457.031 154.727C457.031 155.987 457.239 157.05 457.656 157.916C458.077 158.783 458.643 159.438 459.353 159.884C460.068 160.329 460.866 160.551 461.746 160.551C462.229 160.551 462.693 160.485 463.138 160.352C463.584 160.22 463.988 160.023 464.353 159.763C464.722 159.498 465.035 159.173 465.29 158.79C465.551 158.402 465.733 157.956 465.837 157.455H467.599C467.466 158.198 467.225 158.863 466.874 159.45C466.524 160.037 466.088 160.537 465.567 160.949C465.047 161.356 464.462 161.666 463.813 161.879C463.169 162.092 462.48 162.199 461.746 162.199C460.506 162.199 459.403 161.896 458.437 161.29C457.471 160.684 456.711 159.822 456.157 158.705C455.603 157.587 455.326 156.261 455.326 154.727C455.326 153.193 455.603 151.867 456.157 150.75C456.711 149.633 457.471 148.771 458.437 148.165C459.403 147.559 460.506 147.256 461.746 147.256C462.48 147.256 463.169 147.362 463.813 147.575C464.462 147.788 465.047 148.101 465.567 148.513C466.088 148.92 466.524 149.417 466.874 150.004C467.225 150.587 467.466 151.252 467.599 152ZM470.218 162V151.091H471.837V152.739H471.951C472.15 152.199 472.509 151.761 473.03 151.425C473.551 151.089 474.138 150.92 474.792 150.92C474.915 150.92 475.069 150.923 475.253 150.928C475.438 150.932 475.578 150.939 475.672 150.949V152.653C475.615 152.639 475.485 152.618 475.282 152.589C475.083 152.556 474.872 152.54 474.65 152.54C474.119 152.54 473.646 152.651 473.229 152.874C472.817 153.091 472.49 153.394 472.249 153.783C472.012 154.166 471.894 154.604 471.894 155.097V162H470.218ZM480.869 162.256C480.178 162.256 479.551 162.125 478.987 161.865C478.424 161.6 477.976 161.219 477.645 160.722C477.313 160.22 477.148 159.614 477.148 158.903C477.148 158.278 477.271 157.772 477.517 157.384C477.763 156.991 478.092 156.683 478.504 156.46C478.916 156.238 479.371 156.072 479.868 155.963C480.37 155.849 480.874 155.759 481.381 155.693C482.044 155.608 482.581 155.544 482.993 155.501C483.41 155.454 483.713 155.376 483.902 155.267C484.096 155.158 484.193 154.969 484.193 154.699V154.642C484.193 153.941 484.001 153.397 483.618 153.009C483.239 152.62 482.664 152.426 481.892 152.426C481.092 152.426 480.464 152.601 480.01 152.952C479.555 153.302 479.236 153.676 479.051 154.074L477.46 153.506C477.744 152.843 478.123 152.327 478.597 151.957C479.075 151.583 479.596 151.323 480.159 151.176C480.727 151.025 481.286 150.949 481.835 150.949C482.186 150.949 482.588 150.991 483.043 151.077C483.502 151.157 483.945 151.325 484.371 151.581C484.802 151.837 485.159 152.223 485.443 152.739C485.727 153.255 485.869 153.946 485.869 154.812V162H484.193V160.523H484.108C483.994 160.759 483.805 161.013 483.54 161.283C483.275 161.553 482.922 161.782 482.482 161.972C482.041 162.161 481.504 162.256 480.869 162.256ZM481.125 160.75C481.788 160.75 482.347 160.62 482.801 160.359C483.26 160.099 483.606 159.763 483.838 159.351C484.075 158.939 484.193 158.506 484.193 158.051V156.517C484.122 156.602 483.966 156.68 483.724 156.751C483.488 156.818 483.213 156.877 482.901 156.929C482.593 156.976 482.292 157.019 481.999 157.057C481.71 157.09 481.475 157.118 481.295 157.142C480.86 157.199 480.453 157.291 480.074 157.419C479.7 157.542 479.397 157.729 479.165 157.98C478.938 158.226 478.824 158.562 478.824 158.989C478.824 159.571 479.039 160.011 479.47 160.31C479.906 160.603 480.457 160.75 481.125 160.75ZM493.787 151.091V152.511H487.906V151.091H493.787ZM489.667 162V149.585C489.667 148.96 489.814 148.439 490.108 148.023C490.401 147.606 490.782 147.294 491.251 147.085C491.72 146.877 492.215 146.773 492.735 146.773C493.147 146.773 493.484 146.806 493.744 146.872C494.004 146.938 494.199 147 494.326 147.057L493.843 148.506C493.758 148.477 493.64 148.442 493.488 148.399C493.342 148.357 493.147 148.335 492.906 148.335C492.352 148.335 491.952 148.475 491.706 148.754C491.464 149.034 491.343 149.443 491.343 149.983V162H489.667ZM500.88 151.091V152.511H495.227V151.091H500.88ZM496.874 148.477H498.55V158.875C498.55 159.348 498.619 159.704 498.756 159.94C498.898 160.172 499.078 160.329 499.296 160.409C499.519 160.485 499.753 160.523 499.999 160.523C500.184 160.523 500.335 160.513 500.454 160.494C500.572 160.471 500.667 160.452 500.738 160.438L501.079 161.943C500.965 161.986 500.807 162.028 500.603 162.071C500.399 162.118 500.141 162.142 499.829 162.142C499.355 162.142 498.891 162.04 498.437 161.837C497.987 161.633 497.613 161.323 497.315 160.906C497.021 160.49 496.874 159.964 496.874 159.33V148.477Z" fill="white"/>
</svg>
